<?xml version="1.0" standalone="no"?>
<!DOCTYPE svg PUBLIC "-//W3C//DTD SVG 20010904//EN"
 "http://www.w3.org/TR/2001/REC-SVG-20010904/DTD/svg10.dtd">
<svg version="1.0" xmlns="http://www.w3.org/2000/svg"
 width="300.000000pt" height="300.000000pt" viewBox="0 0 300.000000 300.000000"
 preserveAspectRatio="xMidYMid meet">
<metadata>
Created by potrace 1.10, written by Peter Selinger 2001-2011
</metadata>
<g transform="translate(0.000000,300.000000) scale(0.100000,-0.100000)"
fill="#b11312" stroke="none">
<path d="M1375 2619 c-317 -18 -655 -124 -924 -292 -160 -99 -386 -289 -430
-361 -53 -85 8 -191 109 -188 44 1 67 17 176 122 224 215 524 370 854 442 93
20 132 23 340 23 207 0 247 -3 339 -23 162 -36 284 -78 443 -154 l148 -70 42
13 c79 26 112 115 68 186 -16 26 -49 47 -162 102 -327 158 -634 219 -1003 200z"/>
<path d="M2805 2101 c-16 -10 -302 -292 -635 -625 l-605 -606 -63 0 c-102 0
-177 -45 -225 -135 -30 -56 -30 -164 0 -220 48 -89 123 -135 223 -135 143 0
242 98 246 244 l1 68 616 617 c341 340 621 629 626 644 15 39 14 63 -5 103
-30 62 -117 84 -179 45z"/>
<path d="M1311 1735 c-220 -39 -425 -141 -594 -295 -68 -62 -87 -95 -87 -149
0 -74 83 -136 150 -113 16 6 66 43 111 82 145 125 288 194 466 225 110 19 181
19 308 -2 88 -14 108 -14 135 -3 82 34 94 160 20 217 -54 42 -355 65 -509 38z"/>
</g>
</svg>
