 <svg  version="1.0" xmlns="http://www.w3.org/2000/svg"  width="900.000000pt" height="900.000000pt" viewBox="0 0 900.000000 900.000000"  preserveAspectRatio="xMidYMid meet">  <g transform="translate(0.000000,900.000000) scale(0.100000,-0.100000)" fill="#7afffd" stroke="none"> <path d="M5160 8066 c-30 -7 -72 -20 -94 -30 -43 -19 -140 -112 -156 -148 -10 -24 -15 -32 -62 -106 -16 -24 -28 -45 -28 -47 0 -3 -26 -49 -58 -102 -32 -54 -61 -105 -65 -113 -4 -8 -16 -28 -27 -45 -11 -16 -23 -37 -27 -45 -7 -16 -146 -254 -163 -280 -6 -8 -14 -24 -19 -35 -5 -11 -21 -37 -35 -58 -14 -21 -26 -40 -26 -42 0 -4 -113 -199 -130 -225 -6 -8 -15 -24 -20 -35 -6 -11 -23 -41 -38 -66 -15 -25 -49 -85 -77 -132 -55 -96 -69 -102 -142 -72 -47 20 -233 20 -316 0 -59 -13 -123 -27 -297 -62 -155 -31 -227 -45 -287 -59 -34 -8 -71 -14 -82 -14 -53 0 -150 49 -356 180 -13 8 -78 49 -145 90 -66 41 -133 83 -148 92 -15 10 -36 22 -47 28 -11 6 -32 18 -46 28 -15 9 -81 51 -148 92 -200 123 -247 144 -367 160 -192 26 -357 -33 -529 -191 -94 -87 -305 -282 -329 -304 -6 -6 -63 -58 -126 -115 -63 -58 -120 -109 -126 -115 -27 -25 -262 -244 -386 -359 -210 -195 -258 -289 -258 -511 1 -119 4 -141 56 -310 8 -27 19 -66 23 -85 5 -19 13 -48 19 -65 5 -16 18 -59 27 -95 10 -36 23 -83 30 -105 7 -22 20 -65 28 -95 26 -91 49 -173 62 -215 7 -22 20 -67 29 -100 19 -64 34 -117 60 -205 23 -78 73 -255 91 -320 26 -91 47 -163 61 -203 8 -20 14 -44 14 -53 0 -23 56 -131 91 -175 l31 -40 -25 -37 c-14 -20 -34 -48 -46 -62 -11 -14 -33 -41 -48 -62 -24 -32 -233 -302 -303 -393 -112 -145 -148 -194 -160 -220 -57 -123 -51 -267 16 -383 15 -26 30 -49 34 -52 4 -3 43 -49 88 -103 46 -54 93 -110 106 -125 48 -55 222 -260 261 -306 22 -27 45 -54 50 -60 6 -6 49 -56 95 -111 47 -55 92 -109 102 -120 175 -207 292 -335 331 -361 92 -64 117 -67 484 -71 219 -3 345 -1 372 7 80 21 141 100 143 185 1 57 -26 102 -83 140 l-44 30 -335 3 c-300 2 -336 5 -350 20 -8 9 -40 46 -70 82 -30 35 -59 70 -65 76 -5 6 -30 35 -55 64 -25 30 -74 88 -110 130 -36 41 -75 86 -87 100 -11 14 -65 77 -118 140 -53 63 -118 140 -145 170 -26 30 -87 102 -136 160 -48 58 -99 116 -112 130 -13 14 -30 37 -38 52 -15 28 -8 48 31 95 18 22 29 36 130 168 54 72 102 132 105 135 3 3 17 21 30 40 13 19 27 37 30 40 4 3 58 73 120 155 63 83 125 161 137 175 13 14 23 28 23 32 0 3 6 13 13 20 7 7 65 81 128 163 62 83 121 159 131 170 9 11 34 43 56 71 35 44 49 54 99 68 32 9 81 24 108 32 28 8 68 18 90 24 22 5 92 23 155 40 163 44 207 56 275 75 33 8 85 23 115 31 74 20 133 36 275 74 66 18 143 39 170 46 28 8 75 21 105 29 52 13 84 21 220 58 30 9 80 22 110 30 30 8 107 29 170 47 63 17 134 35 158 40 23 5 50 13 60 18 9 5 35 12 57 16 22 4 54 11 70 16 17 5 56 16 87 25 124 33 170 46 222 61 50 15 55 15 82 -3 16 -10 36 -25 45 -33 22 -21 49 -43 182 -149 64 -52 117 -100 117 -107 0 -7 -19 -37 -43 -66 -23 -29 -50 -64 -58 -78 -9 -14 -27 -36 -39 -50 -12 -14 -30 -36 -39 -50 -19 -29 -23 -35 -57 -75 -32 -38 -95 -167 -107 -220 -18 -84 -19 -180 -2 -259 9 -42 21 -79 26 -82 5 -3 9 -12 9 -21 0 -13 243 -429 259 -443 8 -7 29 -41 38 -60 3 -8 18 -33 32 -55 14 -22 31 -49 38 -60 6 -11 58 -96 115 -189 135 -220 128 -208 121 -230 -3 -11 -18 -40 -33 -65 -27 -46 -114 -201 -167 -298 -15 -28 -52 -93 -80 -143 -29 -50 -53 -93 -53 -96 0 -2 -11 -22 -24 -43 -13 -21 -48 -80 -76 -132 -29 -52 -58 -97 -64 -101 -6 -4 -180 -8 -387 -8 -372 0 -376 0 -419 -23 -24 -12 -57 -39 -73 -60 -25 -31 -30 -45 -29 -86 2 -88 61 -169 140 -191 22 -6 182 -10 402 -10 390 0 431 4 530 52 53 26 147 119 175 174 11 21 38 71 61 109 22 39 43 77 47 85 4 8 15 29 25 45 10 17 35 59 54 95 44 80 95 170 108 190 6 8 13 22 17 30 24 53 76 129 84 124 9 -5 46 -59 74 -106 5 -10 71 -117 145 -238 74 -121 140 -228 145 -238 101 -171 234 -270 413 -306 74 -14 217 -16 1360 -16 1199 0 1282 2 1358 19 245 55 395 219 458 501 26 116 46 201 58 245 13 50 36 147 47 200 5 22 14 63 21 90 6 28 18 76 26 108 8 31 21 83 29 115 8 31 17 74 20 95 4 23 11 37 20 37 12 0 15 22 15 125 0 103 -3 125 -15 125 -8 0 -17 15 -21 37 -7 35 -25 78 -61 148 -18 33 -111 128 -193 197 -56 47 -344 292 -390 332 -48 42 -385 329 -430 366 -25 21 -66 55 -92 76 -26 22 -47 44 -47 51 -1 12 42 27 159 57 36 10 88 23 115 31 28 7 79 21 115 30 36 10 85 23 110 30 25 7 74 21 110 31 142 39 235 128 276 263 21 71 21 2613 -1 2685 -33 109 -71 152 -245 275 -63 45 -146 104 -185 132 -38 27 -115 81 -170 120 -55 38 -131 92 -170 120 -38 27 -113 80 -165 118 -52 37 -126 89 -164 117 -360 255 -409 286 -490 300 -98 18 -1804 17 -1886 0z m1845 -379 c22 -13 77 -50 122 -83 159 -115 207 -149 218 -154 6 -3 44 -30 86 -61 41 -31 84 -61 96 -67 12 -7 28 -18 35 -24 25 -24 77 -58 88 -58 5 0 10 -4 10 -9 0 -5 26 -26 58 -47 31 -21 91 -63 134 -94 42 -30 106 -75 142 -100 37 -25 72 -50 79 -56 11 -9 58 -43 152 -108 16 -12 38 -30 48 -40 16 -18 17 -88 15 -1254 l-3 -1236 -50 -14 c-27 -7 -66 -17 -85 -22 -92 -21 -166 -43 -174 -51 -6 -5 -25 -9 -42 -9 -18 0 -45 -5 -61 -11 -38 -15 -235 -67 -302 -81 -51 -10 -55 -9 -73 13 -10 13 -23 33 -29 44 -5 11 -18 34 -29 50 -11 17 -24 39 -30 50 -6 11 -18 32 -28 47 -9 15 -37 60 -61 100 -25 40 -48 75 -53 76 -4 2 -8 8 -8 14 0 9 -40 76 -92 157 -10 14 -22 35 -28 46 -6 11 -19 34 -30 50 -11 17 -24 39 -30 50 -6 11 -18 32 -28 47 -9 14 -30 48 -46 75 -16 26 -32 50 -35 53 -3 3 -17 25 -30 50 -69 131 -178 243 -290 300 -65 33 -199 70 -256 70 -19 0 -46 5 -62 11 -15 6 -64 14 -108 19 -44 4 -100 13 -125 18 -25 6 -92 18 -150 27 -58 9 -127 21 -155 27 -73 16 -211 14 -277 -5 -88 -24 -186 -77 -246 -132 l-54 -49 -57 60 c-31 33 -121 131 -201 219 -79 88 -147 162 -150 165 -3 3 -71 77 -150 165 -79 88 -160 177 -179 198 -71 77 -101 112 -101 119 0 3 26 50 58 105 32 54 61 105 65 113 4 8 16 29 27 45 11 17 23 37 27 45 4 8 39 69 78 135 39 66 75 127 78 135 4 8 16 29 27 45 11 17 23 37 27 45 4 8 39 69 78 135 39 66 75 127 78 135 4 8 16 29 27 45 11 17 23 37 27 45 4 8 39 69 78 135 39 66 75 127 79 135 4 8 12 24 19 35 7 11 27 46 45 78 l33 57 867 0 867 0 40 -23z m-5273 -1038 c29 -6 71 -23 93 -38 22 -15 47 -30 55 -34 8 -4 29 -16 45 -27 17 -11 36 -23 43 -26 7 -4 43 -26 79 -50 37 -24 73 -44 79 -44 7 0 14 -3 16 -7 3 -9 55 -46 78 -56 8 -4 27 -15 42 -25 25 -16 192 -120 232 -145 11 -7 38 -24 59 -39 22 -16 44 -28 48 -28 4 0 27 -13 51 -28 38 -26 68 -42 131 -74 20 -10 77 -23 178 -40 56 -9 78 -9 135 5 38 10 80 17 92 17 13 0 51 7 85 15 34 8 100 21 147 30 47 9 108 23 136 31 28 8 66 14 85 14 19 1 52 7 74 15 22 8 76 15 123 15 106 0 124 -11 262 -161 58 -62 122 -131 144 -153 21 -22 63 -69 95 -104 78 -89 92 -104 195 -216 50 -55 116 -127 146 -161 30 -33 96 -105 146 -160 130 -143 147 -164 140 -180 -4 -11 -306 -419 -351 -473 -5 -7 -15 -18 -20 -25 -6 -7 -21 -29 -35 -49 -41 -62 -40 -62 -142 22 -130 107 -295 236 -315 247 -49 28 -141 53 -191 53 -56 0 -164 -23 -220 -46 -18 -8 -45 -14 -60 -14 -15 0 -40 -7 -56 -15 -15 -8 -38 -15 -50 -15 -19 0 -66 -13 -151 -42 -16 -5 -51 -14 -77 -18 -27 -5 -53 -12 -60 -16 -6 -4 -28 -11 -47 -14 -33 -7 -124 -31 -246 -66 -27 -8 -75 -21 -105 -28 -30 -8 -82 -21 -115 -31 -33 -10 -76 -21 -95 -25 -19 -5 -48 -13 -65 -18 -16 -6 -50 -15 -75 -21 -25 -6 -94 -25 -155 -42 -60 -16 -129 -34 -153 -39 -23 -5 -51 -14 -61 -20 -11 -5 -30 -10 -43 -10 -12 0 -40 -6 -63 -14 -22 -8 -69 -22 -105 -31 -36 -10 -85 -23 -110 -30 -25 -7 -65 -18 -90 -24 -91 -23 -227 -59 -261 -69 -19 -5 -61 -18 -94 -27 -122 -33 -161 -48 -212 -82 -62 -41 -94 -75 -198 -216 -43 -59 -85 -107 -92 -107 -7 0 -13 12 -13 28 0 15 -7 40 -15 56 -8 15 -15 39 -15 52 0 13 -6 41 -13 61 -23 62 -45 136 -52 170 -4 18 -11 35 -16 38 -5 4 -9 18 -9 33 0 15 -7 47 -15 72 -39 121 -75 243 -75 258 0 9 -7 30 -15 46 -8 15 -15 36 -15 45 0 10 -6 37 -14 62 -7 24 -21 71 -31 104 -10 33 -24 76 -31 95 -7 19 -16 52 -19 74 -4 21 -10 46 -15 55 -4 9 -13 36 -19 61 -6 25 -18 68 -27 95 -8 28 -19 69 -24 92 -5 23 -13 50 -18 60 -16 31 -36 116 -40 173 -7 105 5 121 343 430 33 30 82 76 110 101 27 26 64 59 80 74 206 188 322 296 406 375 51 49 187 172 228 206 29 25 91 48 138 53 7 0 36 -4 65 -10z m4058 -1528 c41 -6 95 -15 120 -21 25 -5 77 -14 115 -20 39 -6 108 -17 155 -25 47 -7 117 -18 155 -24 122 -19 171 -38 211 -84 19 -23 79 -114 131 -202 53 -88 115 -189 137 -225 23 -36 46 -74 53 -85 46 -75 277 -454 286 -470 7 -11 28 -45 47 -75 20 -30 63 -100 95 -155 56 -94 140 -190 235 -269 147 -123 226 -190 230 -195 3 -4 48 -42 100 -86 52 -44 106 -89 120 -102 14 -12 126 -108 250 -213 328 -279 361 -310 381 -355 26 -56 24 -100 -11 -245 -17 -69 -40 -163 -51 -210 -11 -47 -24 -101 -29 -120 -4 -19 -15 -64 -24 -100 -8 -36 -20 -85 -26 -110 -6 -25 -17 -72 -25 -105 -13 -56 -32 -134 -53 -216 -16 -62 -39 -88 -122 -139 -22 -13 -180 -15 -1285 -18 -693 -2 -1284 0 -1312 3 -60 7 -137 53 -162 97 -9 14 -77 126 -151 247 -74 122 -141 231 -148 244 -7 12 -21 34 -30 48 -9 15 -78 126 -152 248 -74 122 -142 232 -150 245 -19 30 -282 461 -295 484 -5 10 -28 47 -50 83 -22 35 -46 73 -52 84 -7 11 -48 79 -91 150 -109 180 -119 214 -83 297 14 33 416 576 557 753 32 39 1 -1 319 420 153 204 295 387 314 409 69 75 113 83 291 57z"/> <path d="M1600 6067 c-41 -10 -73 -38 -336 -301 -160 -160 -298 -302 -306 -316 -23 -36 -30 -92 -19 -142 7 -33 21 -54 62 -90 52 -47 54 -48 119 -48 87 0 96 6 339 250 l192 193 122 -120 c67 -66 133 -126 147 -133 14 -7 51 -13 83 -13 48 0 65 5 100 29 81 58 110 160 68 242 -29 56 -419 437 -456 445 -16 4 -39 8 -50 11 -11 2 -40 -1 -65 -7z"/> <path d="M5750 3889 c-47 -19 -66 -43 -196 -244 -21 -33 -43 -68 -49 -77 -12 -20 -73 -117 -150 -238 -49 -78 -54 -90 -54 -145 -1 -54 7 -81 77 -245 110 -258 156 -303 285 -279 55 10 108 57 131 115 23 62 18 88 -54 249 -61 136 -61 138 -21 197 15 24 49 77 75 118 27 41 61 94 77 118 16 23 29 47 29 52 0 5 6 12 13 17 6 4 161 10 342 13 319 5 331 6 366 27 41 26 89 107 89 151 0 72 -69 163 -133 176 -51 10 -800 6 -827 -5z"/> <path d="M2875 3534 c-27 -9 -72 -21 -100 -28 -27 -8 -102 -28 -165 -45 -108 -30 -154 -43 -275 -75 -27 -8 -102 -28 -165 -45 -149 -41 -214 -59 -275 -75 -74 -19 -109 -40 -144 -88 -17 -23 -31 -45 -31 -50 0 -4 -27 -52 -60 -106 -33 -55 -60 -102 -60 -106 0 -3 -17 -34 -38 -68 -21 -35 -43 -74 -50 -88 -7 -14 -22 -41 -33 -60 -12 -19 -37 -64 -56 -99 -20 -36 -54 -94 -76 -130 -37 -59 -42 -74 -45 -141 -3 -70 -2 -78 26 -116 37 -50 85 -74 150 -74 62 0 89 10 123 44 24 24 139 206 139 220 0 3 17 34 38 68 21 35 56 95 77 133 21 39 49 88 61 110 13 22 32 58 44 80 62 117 73 124 220 160 94 23 254 66 270 72 8 4 38 12 65 19 28 7 77 20 110 29 33 9 78 21 100 26 22 5 49 13 60 18 11 5 45 14 75 20 l55 12 29 -33 c16 -18 50 -55 75 -83 26 -27 108 -118 183 -201 79 -87 152 -158 171 -168 108 -51 244 22 262 139 8 51 -8 115 -37 146 -13 14 -36 40 -52 59 -23 29 -164 184 -226 250 -8 9 -32 36 -54 60 -93 107 -193 204 -223 216 -41 18 -104 16 -168 -2z"/> <path d="M2580 1244 c-47 -20 -97 -70 -111 -111 -8 -24 -7 -47 2 -87 15 -69 59 -118 126 -142 48 -17 53 -17 94 -1 75 30 104 63 124 139 18 67 7 112 -37 155 -61 59 -131 76 -198 47z"/> </g> </svg> 