 <svg  version="1.0" xmlns="http://www.w3.org/2000/svg"  width="900.000000pt" height="900.000000pt" viewBox="0 0 900.000000 900.000000"  preserveAspectRatio="xMidYMid meet">  <g transform="translate(0.000000,900.000000) scale(0.100000,-0.100000)" fill="#fff700" stroke="none"> <path d="M2800 7378 c-47 -5 -105 -13 -130 -19 -25 -6 -67 -14 -95 -19 -27 -4 -63 -12 -80 -18 -16 -6 -49 -16 -72 -22 -59 -15 -93 -49 -93 -91 0 -45 30 -77 111 -118 84 -43 144 -77 197 -112 24 -16 45 -29 48 -29 3 0 42 -23 87 -51 45 -28 91 -56 102 -62 11 -7 84 -55 163 -107 79 -52 151 -99 160 -105 9 -5 42 -29 74 -52 31 -24 61 -43 67 -43 6 0 11 -3 11 -7 0 -5 17 -19 38 -33 43 -28 195 -141 202 -150 3 -3 21 -17 40 -30 19 -12 40 -28 45 -34 6 -6 55 -47 110 -91 55 -43 129 -104 165 -135 36 -30 86 -72 111 -93 l47 -37 -1588 -1588 c-873 -873 -1590 -1598 -1594 -1610 -4 -12 -3 -30 3 -39 19 -35 666 -674 687 -679 12 -3 33 1 46 10 27 18 3107 3098 3138 3139 12 15 27 27 35 27 7 0 28 -19 46 -42 28 -37 102 -122 189 -218 64 -72 216 -247 286 -331 104 -124 120 -143 138 -163 10 -11 52 -66 94 -121 42 -55 88 -113 104 -129 15 -17 28 -34 28 -38 0 -5 21 -37 48 -72 26 -35 54 -74 62 -86 8 -13 33 -48 56 -79 22 -31 43 -63 47 -71 4 -8 15 -27 25 -42 33 -52 100 -164 127 -213 15 -27 36 -58 47 -67 24 -22 76 -23 103 -4 29 21 68 107 85 191 5 22 13 53 19 68 14 36 14 418 0 472 -5 22 -13 63 -18 90 -12 74 -50 224 -73 290 -5 17 -14 46 -18 65 -10 45 -28 97 -46 133 -8 16 -14 35 -14 44 0 8 -6 27 -14 41 -8 15 -22 47 -31 72 -18 45 -165 348 -188 385 -7 11 -24 39 -39 63 -16 24 -28 45 -28 47 0 3 -21 35 -47 72 -26 38 -62 91 -81 118 -42 63 -152 197 -169 208 -18 11 -16 64 3 75 8 5 21 18 27 30 7 12 53 80 102 152 50 73 95 139 100 148 21 34 50 77 55 82 14 12 31 70 26 87 -3 10 -119 132 -258 270 -278 278 -286 283 -348 240 -19 -13 -66 -46 -105 -72 -38 -27 -110 -76 -160 -109 -49 -33 -116 -80 -147 -104 l-57 -45 -48 48 c-62 61 -358 285 -378 285 -2 0 -30 17 -62 38 -64 43 -68 45 -215 119 -126 63 -235 113 -247 113 -5 0 -22 6 -38 14 -36 18 -88 36 -133 46 -19 4 -48 13 -65 18 -207 72 -566 107 -825 80z m425 -173 c200 -29 377 -71 510 -122 22 -8 58 -22 80 -30 22 -9 81 -35 130 -58 50 -24 97 -45 105 -49 8 -3 22 -10 30 -16 32 -21 172 -100 177 -100 3 0 22 -13 43 -30 21 -16 41 -30 44 -30 12 0 281 -208 356 -275 41 -37 108 -97 149 -134 102 -90 337 -326 441 -441 119 -132 294 -344 314 -379 6 -11 35 -54 64 -96 28 -41 52 -77 52 -80 0 -2 12 -23 28 -47 15 -24 32 -52 39 -63 16 -26 141 -280 160 -325 36 -84 41 -97 55 -135 27 -73 40 -110 47 -140 4 -17 13 -40 19 -52 7 -12 12 -31 12 -43 0 -12 6 -36 14 -53 8 -18 16 -48 19 -67 4 -37 19 -99 43 -187 9 -33 17 -127 21 -253 6 -197 6 -200 -14 -200 -14 0 -25 10 -32 28 -17 43 -52 103 -131 219 -72 106 -241 335 -267 361 -7 7 -13 16 -13 20 0 4 -12 21 -28 37 -15 17 -52 62 -83 100 -31 39 -70 86 -87 105 -16 19 -62 73 -101 119 -40 46 -77 89 -84 96 -7 7 -37 41 -67 76 -30 35 -79 91 -109 124 -30 33 -68 76 -85 95 -83 92 -247 272 -306 334 -200 211 -556 550 -704 671 -27 22 -81 67 -120 100 -39 33 -91 76 -116 95 -25 18 -49 38 -55 45 -13 14 -320 244 -360 269 -16 11 -34 23 -40 28 -57 47 -291 203 -335 224 -8 4 -31 19 -50 33 -40 30 -67 47 -95 61 -11 6 -42 24 -70 40 -27 17 -76 42 -107 57 -39 18 -58 33 -58 45 0 15 9 18 53 19 28 0 75 4 102 9 88 13 296 11 410 -5z m2157 -500 c36 -41 153 -159 242 -242 36 -35 66 -67 66 -72 0 -5 -7 -14 -15 -21 -26 -21 -174 -242 -198 -295 -30 -64 -40 -63 -105 17 -72 88 -299 311 -364 357 -51 36 -64 73 -30 85 9 3 26 11 36 18 11 7 49 32 84 56 35 23 66 42 69 42 2 0 37 25 75 55 79 61 86 61 140 0z m-907 -1142 c129 -130 235 -242 235 -248 0 -10 -3070 -3085 -3081 -3085 -9 0 -479 472 -479 482 0 4 28 34 61 66 73 67 2816 2810 2937 2936 46 47 85 86 87 86 2 0 110 -107 240 -237z"/> <path d="M6937 4185 c-9 -20 -17 -42 -17 -50 0 -8 -7 -31 -16 -52 -37 -83 -50 -117 -91 -228 -18 -48 -37 -93 -59 -138 -24 -49 -16 -66 41 -86 28 -10 60 -24 71 -31 29 -18 50 -8 57 27 5 29 21 77 42 128 15 37 42 106 62 160 8 22 21 53 29 68 8 16 14 33 14 39 0 6 12 36 27 66 31 64 29 68 -62 97 -30 9 -55 21 -55 26 0 23 -28 6 -43 -26z"/> <path d="M5200 4065 c-13 -14 -43 -34 -67 -46 -23 -11 -43 -24 -43 -28 0 -5 13 -26 30 -47 64 -85 212 -295 282 -401 33 -51 67 -93 75 -93 16 0 143 88 143 99 0 4 -26 42 -57 84 -32 42 -89 122 -128 177 -38 55 -84 119 -101 143 -18 24 -41 60 -53 82 -19 35 -37 54 -52 55 -3 0 -16 -11 -29 -25z"/> <path d="M4860 3405 c-14 -25 -27 -45 -31 -45 -5 0 -29 -45 -29 -55 0 -2 32 -23 71 -47 39 -24 79 -47 88 -53 9 -5 32 -21 51 -35 19 -14 42 -29 51 -35 61 -36 149 -99 149 -106 0 -5 11 -9 25 -9 17 0 29 8 36 23 16 36 34 65 54 87 24 27 15 43 -47 79 -84 50 -290 186 -337 222 -36 29 -54 23 -81 -26z"/> <path d="M6005 3198 c-60 -49 -146 -117 -190 -151 -44 -33 -91 -71 -105 -83 -14 -13 -63 -52 -110 -88 -341 -263 -314 -238 -355 -323 -97 -203 -217 -454 -293 -613 -24 -52 -49 -102 -53 -110 -5 -8 -12 -22 -15 -30 -7 -17 -62 -133 -154 -325 -34 -71 -83 -173 -107 -225 -25 -52 -50 -102 -54 -110 -5 -8 -12 -22 -15 -30 -13 -30 -46 -96 -75 -149 -16 -29 -29 -57 -27 -62 3 -10 3753 -13 3768 -4 8 5 -5 68 -26 128 -8 20 -14 52 -14 71 0 18 -7 55 -15 82 -8 27 -15 62 -15 78 0 16 -6 52 -14 80 -17 60 -35 150 -46 226 -4 30 -13 68 -19 83 -6 16 -11 43 -11 60 0 18 -7 54 -15 81 -8 27 -15 63 -15 79 0 17 -6 53 -14 81 -17 60 -35 150 -46 226 -4 30 -13 68 -19 83 -6 16 -11 42 -11 59 0 16 -6 57 -14 91 -8 34 -22 98 -31 142 -9 44 -22 109 -30 145 -9 36 -15 81 -15 100 0 19 -4 40 -8 46 -12 18 -49 34 -79 34 -15 0 -45 6 -68 14 -47 16 -114 34 -170 46 -22 4 -53 12 -70 18 -33 12 -99 29 -160 42 -60 13 -126 31 -168 46 -20 8 -47 14 -58 14 -12 0 -42 7 -68 15 -25 8 -75 21 -111 30 -36 9 -90 23 -120 32 -30 8 -77 21 -105 28 -27 8 -61 16 -75 19 -40 8 -112 27 -145 38 -16 6 -48 14 -70 18 -66 14 -128 31 -163 46 -66 28 -89 19 -207 -78z m245 -118 c19 -5 55 -14 80 -20 25 -6 59 -16 75 -22 17 -5 41 -12 55 -14 14 -3 50 -12 80 -20 112 -32 156 -43 180 -48 27 -5 83 -19 167 -42 29 -8 77 -21 105 -28 29 -8 78 -21 108 -30 30 -8 66 -17 80 -20 39 -8 110 -26 160 -42 25 -8 60 -14 78 -14 44 0 102 -25 102 -44 0 -9 -12 -19 -27 -22 -30 -8 -194 -91 -278 -141 -27 -16 -57 -32 -65 -36 -8 -4 -37 -21 -65 -38 -27 -16 -63 -37 -80 -45 -16 -8 -43 -23 -60 -34 -16 -11 -43 -26 -60 -34 -16 -9 -48 -26 -70 -38 -22 -13 -71 -41 -110 -63 -38 -22 -79 -45 -90 -52 -11 -7 -27 -15 -35 -19 -8 -4 -33 -19 -55 -33 -90 -58 -70 -62 -322 63 -383 191 -596 294 -636 307 -54 19 -63 34 -35 54 104 73 283 211 407 314 24 20 51 40 60 45 9 5 18 12 21 15 3 3 27 24 55 46 27 22 58 48 68 58 19 19 21 19 107 -3z m1461 -490 c17 -119 31 -206 36 -213 3 -5 9 -34 13 -65 4 -32 12 -77 18 -102 15 -63 31 -146 41 -210 5 -30 14 -75 20 -100 5 -25 17 -83 26 -130 28 -149 71 -364 90 -450 9 -36 15 -76 15 -90 0 -14 9 -52 20 -84 12 -32 20 -62 18 -68 -3 -8 -1696 -14 -1704 -5 -4 3 10 58 28 117 7 19 15 53 19 75 11 56 28 131 44 190 23 88 38 149 45 195 4 25 12 58 19 73 6 16 11 41 11 56 0 16 7 45 15 64 8 20 15 54 15 75 0 44 11 56 85 94 28 14 66 35 85 46 19 11 58 33 85 48 84 46 98 54 150 85 28 16 64 37 80 45 17 8 44 23 60 34 17 10 48 28 70 40 74 41 147 82 194 109 25 15 53 30 61 34 8 4 33 18 55 30 22 13 56 32 75 42 19 11 66 41 105 67 38 27 77 47 85 45 10 -1 17 -19 21 -47z m-2287 -149 c5 -8 46 -31 130 -74 12 -5 28 -14 36 -19 8 -4 22 -11 30 -14 23 -9 93 -44 110 -54 18 -10 484 -238 553 -270 l49 -23 -7 -51 c-4 -28 -12 -59 -17 -69 -5 -10 -13 -39 -17 -65 -5 -26 -14 -69 -21 -97 -30 -123 -40 -165 -55 -240 -9 -44 -23 -100 -31 -125 -8 -25 -14 -57 -14 -71 0 -15 -7 -43 -15 -62 -8 -20 -15 -57 -15 -82 0 -27 -5 -48 -12 -50 -7 -3 -325 -6 -706 -8 -554 -2 -692 1 -692 11 0 7 10 29 23 50 27 43 123 241 292 597 26 55 66 141 90 190 24 50 46 97 49 105 3 8 10 22 15 30 10 16 66 136 75 160 3 8 10 22 15 30 16 25 71 149 71 160 0 34 49 66 64 41z"/> <path d="M4231 2947 c-6 -6 -11 -27 -11 -46 0 -20 -5 -53 -11 -75 -15 -54 -2 -63 111 -74 89 -10 123 -15 268 -43 31 -6 87 -15 124 -19 37 -5 76 -13 87 -19 11 -6 33 -11 50 -11 29 0 31 2 31 38 0 20 8 58 17 84 9 26 14 50 11 53 -6 6 -81 19 -203 35 -38 5 -86 14 -105 20 -19 5 -48 10 -65 10 -29 0 -117 16 -237 44 -40 10 -60 10 -67 3z"/> </g> </svg> 