<?xml version="1.0" standalone="no"?>
<!DOCTYPE svg PUBLIC "-//W3C//DTD SVG 20010904//EN"
 "http://www.w3.org/TR/2001/REC-SVG-20010904/DTD/svg10.dtd">
<svg version="1.0" xmlns="http://www.w3.org/2000/svg"
 width="300.000000pt" height="300.000000pt" viewBox="0 0 300.000000 300.000000"
 preserveAspectRatio="xMidYMid meet">
<metadata>
Created by potrace 1.10, written by Peter Selinger 2001-2011
</metadata>
<g transform="translate(0.000000,300.000000) scale(0.050000,-0.050000)"
fill="#fbff00" stroke="none">
<path d="M3920 4849 c-467 -14 -960 -26 -1095 -27 -303 -2 -307 -5 -352 -254
-18 -98 -48 -262 -67 -364 l-34 -185 -321 10 c-177 6 -510 16 -742 22 l-421
11 -389 -445 c-504 -575 -504 -575 -490 -631 20 -79 757 -1751 802 -1821 l30
-45 892 0 893 0 762 388 763 388 529 24 c291 13 544 32 562 41 17 9 87 155
154 323 700 1761 633 1535 502 1708 -204 268 -605 779 -655 833 -59 65 25 63
-1323 24z m789 -225 c-103 -89 -954 -603 -976 -590 -14 9 -196 138 -403 286
l-376 270 538 14 c296 8 628 17 738 21 444 14 497 14 479 -1z m738 -428 c161
-206 293 -383 293 -394 0 -10 -138 -368 -307 -795 -169 -428 -313 -793 -319
-812 -11 -30 -39 -35 -180 -35 -92 0 -289 -6 -438 -13 l-271 -13 -37 198 c-40
210 -73 268 -158 268 -104 0 -121 -73 -71 -312 25 -116 42 -212 38 -214 -221
-115 -1295 -654 -1304 -654 -7 0 -13 79 -14 175 0 96 -17 450 -37 785 -20 336
-36 611 -35 612 2 1 147 95 323 208 176 114 413 269 527 344 114 76 211 135
215 131 4 -4 24 -96 45 -205 47 -246 119 -314 223 -210 53 53 52 63 -50 513
-9 38 64 90 575 418 322 206 598 387 614 402 36 33 1 71 368 -397z m-2323 -11
c140 -99 251 -184 247 -188 -25 -25 -772 31 -762 57 6 16 25 111 43 212 44
257 36 247 133 168 47 -38 199 -150 339 -249z m405 -206 c-7 -12 6 -27 29 -33
23 -6 42 -18 42 -27 0 -9 18 -22 40 -29 70 -22 43 -62 -61 -88 -91 -24 -105
-23 -140 9 -64 58 -36 152 51 174 22 6 43 11 46 13 4 1 0 -8 -7 -19z m-800
-196 l659 -13 -189 -119 c-104 -65 -307 -197 -451 -293 l-262 -173 -174 99
c-186 107 -250 115 -293 34 -44 -82 -8 -130 181 -238 l180 -103 0 -84 c1 -45
18 -380 40 -743 22 -363 39 -691 40 -730 l0 -70 -745 4 -745 4 -46 106 c-26
58 -187 423 -358 810 l-310 705 50 59 c27 33 186 217 353 409 l304 348 190
-111 c163 -95 198 -108 244 -92 81 29 102 115 43 178 l-48 51 339 -13 c187 -7
635 -18 998 -25z"/>
<path d="M3864 3119 c-18 -29 -19 -51 -4 -79 35 -66 64 -47 51 34 -15 91 -17
93 -47 45z"/>
<path d="M3891 2909 c-17 -18 -31 -58 -31 -89 0 -108 117 -160 187 -83 98 108
-52 275 -156 172z"/>
<path d="M1573 3603 c-58 -63 -41 -137 42 -181 73 -38 164 22 165 110 0 95
-141 144 -207 71z"/>
<path d="M1820 3453 c0 -20 143 -97 155 -84 27 26 -31 81 -92 87 -35 4 -63 2
-63 -3z"/>
</g>
</svg>
