<?xml version="1.0" standalone="no"?>
<!DOCTYPE svg PUBLIC "-//W3C//DTD SVG 20010904//EN"
 "http://www.w3.org/TR/2001/REC-SVG-20010904/DTD/svg10.dtd">
<svg version="1.0" xmlns="http://www.w3.org/2000/svg"
 width="900.000000pt" height="900.000000pt" viewBox="0 0 900.000000 900.000000"
 preserveAspectRatio="xMidYMid meet">
<metadata>
Created by potrace 1.10, written by Peter Selinger 2001-2011
</metadata>
<g transform="translate(0.000000,900.000000) scale(0.100000,-0.100000)"
fill="#b11312" stroke="none">
<path d="M4229 8226 c-3 -3 -54 -10 -114 -16 -239 -24 -573 -100 -733 -166
-18 -8 -38 -14 -45 -14 -7 0 -23 -6 -37 -13 -14 -7 -54 -24 -90 -37 -90 -33
-337 -156 -445 -222 -79 -48 -126 -79 -260 -172 -241 -168 -581 -512 -765
-776 -148 -212 -296 -485 -380 -700 -42 -105 -49 -126 -80 -225 -43 -135 -57
-187 -75 -275 -9 -41 -20 -93 -25 -115 -5 -22 -15 -80 -21 -130 -6 -49 -15
-115 -20 -145 -5 -30 -11 -239 -15 -465 -4 -225 -9 -415 -13 -422 -3 -6 -50
-34 -104 -62 -359 -187 -649 -488 -819 -851 -66 -140 -65 -136 -88 -210 -11
-36 -25 -79 -30 -96 -17 -52 -31 -126 -41 -209 -5 -44 -14 -105 -19 -136 -13
-71 -13 -237 0 -308 5 -31 14 -92 19 -136 10 -83 24 -157 41 -209 58 -186 51
-164 99 -267 17 -37 31 -70 31 -74 0 -15 123 -210 179 -284 145 -189 375 -395
546 -487 11 -6 45 -25 75 -42 103 -58 282 -124 472 -173 126 -33 455 -50 538
-29 68 18 151 47 190 66 53 26 160 107 206 156 41 44 124 160 124 175 0 4 6
19 13 33 28 54 50 139 58 230 11 124 11 2266 0 2390 -8 91 -30 176 -58 230 -7
14 -13 29 -13 33 0 5 -20 39 -45 76 -73 109 -191 212 -295 258 -30 13 -64 28
-75 34 -11 5 -42 14 -70 19 -47 10 -66 13 -154 26 l-34 5 7 327 c4 180 10 354
15 387 13 92 30 184 46 245 50 201 74 278 121 387 8 17 14 34 14 37 0 3 25 58
55 122 249 526 678 962 1207 1226 64 32 119 58 123 58 3 0 27 9 53 21 74 32
84 36 132 52 44 15 161 49 230 67 347 91 830 97 1190 16 386 -87 673 -218
1020 -466 141 -101 351 -307 485 -475 58 -73 155 -215 218 -322 44 -72 143
-279 153 -317 3 -14 10 -29 15 -32 5 -3 9 -12 9 -21 0 -8 6 -29 14 -46 48
-108 108 -351 137 -552 15 -107 24 -701 10 -709 -6 -4 -37 -12 -69 -17 -90
-14 -155 -28 -177 -38 -122 -56 -162 -80 -221 -129 -162 -136 -246 -295 -265
-502 -4 -52 -8 -595 -9 -1206 l0 -1112 -22 -6 c-13 -3 -285 -6 -606 -6 l-583
0 -72 -33 c-85 -40 -145 -100 -183 -184 -37 -82 -37 -213 -1 -293 39 -86 100
-148 184 -187 l72 -33 1088 3 c1064 4 1145 6 1261 36 228 59 378 118 543 213
60 34 214 141 251 175 92 80 237 232 295 309 55 73 173 257 173 270 0 3 16 40
36 82 52 111 52 111 72 177 40 124 52 168 52 187 0 11 4 27 9 36 5 9 14 69 19
132 11 122 19 153 33 144 5 -3 9 43 9 105 0 82 -3 110 -12 109 -13 -3 -17 19
-37 177 -15 123 -62 306 -100 390 -101 223 -156 320 -255 450 -165 217 -402
416 -639 534 -61 31 -89 50 -92 65 -2 12 -6 201 -10 421 -3 220 -10 425 -14
455 -5 30 -14 96 -20 145 -6 50 -15 106 -20 125 -5 19 -17 73 -26 120 -19 95
-26 117 -91 315 -168 510 -441 951 -821 1326 -172 170 -239 227 -390 336 -259
186 -484 309 -753 413 -47 18 -99 39 -117 47 -17 7 -39 13 -48 13 -9 0 -26 5
-38 12 -12 6 -35 15 -52 19 -16 5 -57 15 -90 24 -130 36 -307 71 -425 85 -47
6 -119 15 -160 20 -73 10 -552 14 -561 6z"/>
</g>
</svg>
