<?xml version="1.0" standalone="no"?>
<!DOCTYPE svg PUBLIC "-//W3C//DTD SVG 20010904//EN"
 "http://www.w3.org/TR/2001/REC-SVG-20010904/DTD/svg10.dtd">
<svg version="1.0" xmlns="http://www.w3.org/2000/svg"
 width="300.000000pt" height="300.000000pt" viewBox="0 0 300.000000 300.000000"
 preserveAspectRatio="xMidYMid meet">
<metadata>
Created by potrace 1.10, written by Peter Selinger 2001-2011
</metadata>
<g transform="translate(0.000000,300.000000) scale(0.100000,-0.100000)"
fill="#b11312" stroke="none">
<path d="M1390 2745 c-8 -2 -49 -9 -90 -15 -424 -69 -780 -401 -890 -832 -23
-88 -44 -306 -38 -390 l4 -58 -65 -37 c-129 -75 -231 -203 -276 -345 -36 -113
-36 -273 0 -386 79 -250 314 -426 570 -427 104 0 149 18 205 81 61 70 60 62
60 539 0 480 0 477 -63 543 -39 41 -92 69 -145 78 l-40 6 5 122 c6 154 32 267
88 382 281 579 1062 667 1467 165 120 -149 182 -325 192 -547 l6 -121 -41 -7
c-54 -9 -107 -37 -146 -78 -63 -65 -63 -66 -63 -513 l0 -405 -205 0 c-228 0
-252 -5 -281 -62 -32 -63 -11 -144 47 -173 27 -14 80 -16 417 -13 366 4 390 5
452 26 193 64 346 217 405 404 36 113 36 273 0 386 -45 142 -147 270 -276 345
l-65 37 4 58 c6 84 -15 302 -38 390 -105 412 -425 725 -839 823 -78 19 -318
35 -361 24z m316 -51 c223 -46 407 -145 564 -303 220 -222 320 -479 320 -819
0 -132 6 -149 68 -181 61 -32 135 -98 188 -166 62 -80 126 -257 127 -350 1
-71 -54 -238 -104 -315 -80 -124 -222 -226 -361 -259 -64 -15 -770 -16 -798
-1 -28 15 -52 65 -44 95 3 14 18 34 31 45 24 18 41 20 209 20 190 0 226 6 243
38 7 13 11 159 11 406 1 431 1 430 71 498 25 24 57 43 94 53 83 25 89 38 82
193 -8 168 -36 277 -104 402 -184 342 -548 528 -928 475 -458 -64 -785 -447
-785 -922 0 -86 2 -96 25 -118 13 -14 35 -25 48 -25 35 0 115 -57 145 -103
l27 -41 3 -417 c2 -265 -1 -432 -7 -456 -14 -51 -66 -112 -115 -134 -50 -23
-158 -25 -234 -5 -225 60 -376 224 -442 479 -21 79 -22 93 -10 144 47 214 151
373 296 454 80 46 84 54 84 194 0 269 56 460 198 673 49 75 191 218 267 269
134 90 311 162 455 186 64 10 313 5 376 -9z"/>
</g>
</svg>
