<?xml version="1.0" standalone="no"?>
<!DOCTYPE svg PUBLIC "-//W3C//DTD SVG 20010904//EN"
 "http://www.w3.org/TR/2001/REC-SVG-20010904/DTD/svg10.dtd">
<svg version="1.0" xmlns="http://www.w3.org/2000/svg"
 width="300.000000pt" height="300.000000pt" viewBox="0 0 300.000000 300.000000"
 preserveAspectRatio="xMidYMid meet">
<metadata>
Created by potrace 1.10, written by Peter Selinger 2001-2011
</metadata>
<g transform="translate(0.000000,300.000000) scale(0.100000,-0.100000)"
fill="#b11312" stroke="none">
<path d="M672 2989 c-219 -43 -379 -272 -342 -488 47 -272 302 -431 563 -351
128 40 244 156 282 284 22 72 19 200 -4 269 -71 206 -284 329 -499 286z"/>
<path d="M2172 2989 c-219 -43 -379 -272 -342 -488 47 -272 302 -431 563 -351
128 40 244 156 282 284 22 72 19 200 -4 269 -71 206 -284 329 -499 286z"/>
<path d="M635 1994 c-11 -2 -45 -9 -75 -15 -73 -14 -221 -87 -293 -144 -151
-120 -259 -334 -261 -516 -1 -55 3 -72 27 -107 48 -73 148 -103 230 -68 46 19
95 78 102 123 20 124 44 181 108 250 52 57 119 90 214 109 85 16 98 22 135 61
107 113 31 298 -127 309 -22 1 -49 1 -60 -2z"/>
<path d="M2255 1988 c-79 -29 -125 -93 -125 -172 0 -56 14 -93 48 -129 37 -39
50 -45 135 -61 95 -19 162 -52 214 -109 55 -60 81 -114 99 -203 16 -86 22 -99
61 -136 81 -77 218 -61 280 34 24 36 28 51 27 112 -4 190 -117 404 -277 523
-144 107 -369 176 -462 141z"/>
<path d="M1377 1850 c-158 -50 -267 -179 -297 -349 -24 -133 26 -276 129 -375
233 -222 600 -134 711 171 19 53 22 77 18 160 -5 111 -23 163 -89 250 -103
137 -303 198 -472 143z"/>
<path d="M1326 854 c-80 -20 -194 -74 -271 -129 -149 -106 -255 -275 -292
-465 -19 -96 -7 -148 46 -201 64 -65 156 -74 233 -23 45 29 66 67 84 151 26
124 108 228 222 281 49 23 70 27 152 27 84 0 103 -3 157 -29 70 -32 148 -107
183 -175 12 -24 27 -71 34 -105 18 -83 39 -121 84 -151 79 -52 180 -39 241 30
48 55 57 101 39 193 -32 159 -96 279 -213 397 -93 94 -213 163 -342 195 -94
24 -267 25 -357 4z"/>
</g>
</svg>
