<?xml version="1.0" standalone="no"?>
<!DOCTYPE svg PUBLIC "-//W3C//DTD SVG 20010904//EN"
 "http://www.w3.org/TR/2001/REC-SVG-20010904/DTD/svg10.dtd">
<svg version="1.0" xmlns="http://www.w3.org/2000/svg"
 width="300.000000pt" height="300.000000pt" viewBox="0 0 300.000000 300.000000"
 preserveAspectRatio="xMidYMid meet">
<metadata>
Created by potrace 1.10, written by Peter Selinger 2001-2011
</metadata>
<g transform="translate(0.000000,300.000000) scale(0.100000,-0.100000)"
fill="#b21413" stroke="none">
<path d="M2422 2990 c-374 -39 -749 -195 -1037 -431 -69 -56 -242 -229 -281
-281 -19 -24 -30 -28 -120 -38 -310 -34 -582 -162 -741 -348 -166 -193 -243
-407 -243 -673 l0 -89 354 0 c198 0 377 -4 407 -10 129 -25 257 -118 313 -228
51 -100 56 -147 56 -534 l0 -358 83 0 c117 0 235 17 330 47 396 124 644 459
698 940 9 86 13 98 37 117 60 45 238 226 297 301 243 310 380 657 416 1049 21
229 -3 330 -105 432 -81 81 -144 106 -281 110 -55 1 -137 -1 -183 -6z m287
-274 c41 -40 47 -77 33 -233 -21 -231 -67 -408 -152 -590 -184 -391 -556 -735
-1104 -1019 l-119 -62 -33 96 c-72 211 -236 370 -445 434 l-77 23 50 100 c221
440 535 821 843 1021 258 167 597 267 892 261 76 -2 84 -4 112 -31z m-1855
-773 c-58 -86 -155 -259 -230 -405 l-85 -168 -140 0 -141 0 7 37 c35 190 178
381 350 470 76 40 215 92 244 93 10 0 9 -7 -5 -27z m1096 -1152 c-76 -258
-247 -438 -484 -510 -37 -12 -74 -21 -82 -21 -11 0 -14 27 -14 140 l0 140 143
71 c150 76 319 170 401 225 28 19 52 32 54 30 2 -2 -6 -36 -18 -75z"/>
<path d="M1867 2240 c-98 -25 -192 -110 -223 -202 -37 -111 0 -255 83 -329 84
-73 208 -99 312 -64 69 23 151 99 182 167 31 71 31 182 1 250 -27 60 -100 134
-157 159 -52 23 -146 32 -198 19z"/>
<path d="M400 856 c-163 -46 -244 -159 -319 -446 -33 -130 -85 -399 -78 -407
8 -7 277 45 406 78 273 71 385 146 442 298 60 160 -20 368 -172 446 -83 43
-191 55 -279 31z m167 -251 c56 -37 74 -116 39 -169 -10 -17 -44 -40 -81 -57
-62 -28 -205 -72 -212 -65 -7 7 50 184 75 231 43 80 113 103 179 60z"/>
</g>
</svg>
