 <svg  version="1.0" xmlns="http://www.w3.org/2000/svg"  width="300.000000pt" height="302.000000pt" viewBox="0 0 300.000000 302.000000"  preserveAspectRatio="xMidYMid meet">  <g transform="translate(0.000000,302.000000) scale(0.100000,-0.100000)" fill="#ff0000" stroke="none"> <path d="M1265 2769 c-322 -19 -683 -95 -882 -185 -40 -18 -71 -57 -79 -100 -9 -50 14 -411 35 -560 48 -328 121 -558 264 -839 150 -296 385 -579 662 -800 91 -73 240 -178 264 -187 45 -16 347 218 540 418 429 443 649 963 701 1649 16 223 14 324 -10 362 -26 43 -47 55 -169 97 -365 127 -811 175 -1326 145z m645 -50 c231 -18 435 -57 630 -121 187 -61 200 -74 200 -198 0 -329 -64 -720 -160 -995 -72 -202 -208 -458 -335 -626 -83 -110 -238 -277 -348 -375 -99 -88 -256 -208 -315 -242 l-39 -21 -38 20 c-101 54 -330 245 -475 395 -377 391 -602 891 -665 1479 -7 71 -16 196 -20 276 -9 186 -1 208 80 245 77 34 259 88 380 112 309 64 711 82 1105 51z"/> <path d="M1305 2523 c-22 -3 -47 -11 -56 -19 -14 -13 -20 -12 -47 3 -30 17 -33 17 -65 0 -28 -15 -39 -17 -56 -8 -14 8 -55 9 -123 5 -130 -8 -170 -20 -182 -56 -15 -43 21 -76 87 -80 l50 -3 -62 -74 c-63 -76 -91 -119 -91 -144 0 -7 11 -24 25 -37 23 -22 28 -23 142 -16 65 4 132 14 150 21 18 8 48 11 72 8 31 -4 46 -1 61 12 17 16 24 16 43 6 38 -20 79 -10 102 25 19 30 25 32 87 36 49 3 75 10 97 25 32 24 41 17 41 -32 0 -27 42 -65 72 -65 10 0 35 16 55 35 32 31 42 35 87 35 32 0 65 7 89 20 20 11 39 20 42 20 3 0 5 -18 5 -40 0 -48 34 -90 73 -90 30 0 67 39 67 71 0 33 18 49 55 49 41 0 55 -16 55 -60 0 -73 78 -106 120 -53 20 26 22 37 18 179 -3 172 -12 194 -74 194 -42 0 -64 -30 -64 -87 0 -41 -1 -42 -37 -49 -52 -10 -67 4 -71 62 -6 87 -61 119 -120 69 -26 -22 -31 -23 -43 -9 -28 33 -67 44 -179 46 l-112 3 -23 -30 c-23 -28 -25 -29 -44 -11 -44 39 -119 51 -246 39z m176 -43 c53 -14 79 -56 79 -127 0 -40 -5 -58 -24 -80 -23 -26 -30 -28 -115 -31 l-90 -4 -3 -36 c-3 -34 -6 -37 -33 -37 l-30 0 -3 150 c-1 82 -1 154 1 160 6 14 169 18 218 5z m384 -16 c52 -34 70 -124 36 -180 -22 -36 -83 -57 -152 -54 -66 4 -69 3 -69 -31 0 -28 -2 -30 -32 -27 l-33 3 -3 144 c-2 98 1 148 9 157 16 20 210 10 244 -12z m-665 -144 l0 -160 -35 0 -35 0 0 144 c0 79 3 151 6 160 4 10 18 16 35 16 l29 0 0 -160z m-116 134 c7 -17 -33 -87 -76 -134 -13 -14 -41 -48 -63 -75 -21 -28 -44 -53 -49 -57 -22 -15 5 -18 90 -10 95 10 104 9 104 -13 0 -9 -16 -16 -43 -20 -78 -12 -249 -21 -253 -13 -9 14 27 68 107 160 118 136 118 128 -2 121 l-101 -6 4 24 c3 22 8 24 78 27 41 2 77 6 79 8 2 2 30 4 62 4 43 0 58 -4 63 -16z m950 -64 l1 -75 90 0 90 0 0 70 1 70 32 2 32 1 -2 -166 c-3 -181 0 -171 -56 -163 -4 1 -6 30 -4 66 4 61 3 64 -20 70 -13 3 -55 5 -93 3 l-70 -3 -1 -55 c-1 -54 -1 -55 -32 -58 l-32 -3 0 161 0 161 31 -3 32 -3 1 -75z m-944 -105 l0 -65 -50 0 c-27 0 -50 4 -50 9 0 10 88 121 96 121 2 0 4 -29 4 -65z"/> <path d="M1337 2433 c-4 -3 -7 -41 -7 -83 l0 -76 63 4 c89 6 97 12 97 76 0 69 -18 86 -92 86 -30 0 -58 -3 -61 -7z m101 -45 c32 -32 -4 -87 -48 -73 -15 5 -20 15 -20 39 0 18 3 36 7 39 11 11 48 8 61 -5z"/> <path d="M1689 2435 c0 -3 -1 -40 -1 -82 l-1 -78 64 3 c74 4 99 23 99 79 0 54 -36 83 -105 83 -30 0 -55 -2 -56 -5z m113 -58 c26 -39 -34 -83 -67 -50 -18 17 -19 28 -4 55 8 15 17 18 37 13 15 -4 30 -12 34 -18z"/> <path d="M1395 2085 c-16 -9 -44 -29 -60 -46 -24 -22 -40 -29 -72 -29 -34 0 -46 -6 -67 -31 -14 -17 -26 -41 -26 -53 0 -16 -18 -38 -59 -70 -90 -73 -107 -103 -120 -220 -8 -70 -23 -129 -52 -207 -50 -132 -49 -163 8 -222 42 -43 82 -66 161 -92 44 -14 63 -15 112 -7 32 6 71 19 86 29 l28 18 -29 6 c-30 7 -30 7 5 8 24 1 39 8 48 22 12 19 11 19 -8 9 -12 -6 -28 -9 -35 -6 -8 3 -17 1 -20 -4 -8 -14 -62 -12 -88 2 -20 10 -21 10 -8 -5 7 -10 24 -17 38 -17 13 0 22 -4 19 -9 -4 -5 -2 -11 4 -13 5 -1 -16 -4 -48 -5 -31 -2 -66 1 -77 6 -11 5 -42 17 -70 27 -56 20 -119 77 -129 116 -4 18 3 44 25 88 38 76 68 194 72 281 2 47 8 72 23 91 26 33 140 128 154 128 16 0 12 -9 -14 -33 -26 -24 -43 -92 -41 -162 1 -43 25 -77 64 -90 12 -3 21 -11 21 -16 0 -6 -4 -7 -10 -4 -5 3 -10 1 -10 -4 0 -6 10 -11 23 -12 12 0 16 -3 9 -6 -8 -3 -6 -10 9 -22 21 -17 38 -78 18 -66 -5 4 -9 -2 -9 -12 0 -15 -2 -16 -10 -3 -7 11 -10 7 -11 -20 l-1 -35 -8 30 c-7 29 -8 29 -9 4 0 -14 2 -28 5 -31 10 -11 44 4 44 19 0 13 3 13 15 3 11 -9 15 -9 15 -1 0 7 5 9 10 6 6 -3 10 1 10 9 0 9 5 16 10 16 17 0 11 16 -27 66 -20 27 -27 40 -15 30 12 -11 22 -14 22 -8 0 6 -9 16 -20 22 -11 6 -20 7 -20 3 0 -4 -18 11 -40 32 -22 21 -40 35 -40 30 0 -5 -6 0 -14 10 -8 11 -12 23 -10 27 3 5 1 8 -3 8 -13 0 1 111 16 140 8 14 22 32 31 40 16 14 16 17 -1 49 -14 27 -15 37 -6 53 20 31 53 33 97 4 33 -21 47 -25 83 -20 31 5 57 1 93 -14 27 -11 68 -25 92 -31 24 -7 46 -19 49 -27 4 -12 19 -15 62 -14 85 3 84 4 77 -31 -6 -32 -19 -48 -51 -66 -11 -7 -20 -17 -20 -25 -2 -43 -30 -103 -66 -138 -37 -36 -129 -79 -129 -61 0 23 32 81 54 98 16 13 26 32 28 54 2 24 8 34 19 33 12 -1 15 4 11 19 -4 16 -2 19 12 14 11 -4 15 -3 11 4 -4 6 -20 7 -37 3 -26 -5 -30 -4 -25 10 5 12 0 16 -21 16 -15 1 -49 7 -77 14 -44 12 -51 11 -62 -3 -10 -14 -14 -14 -35 7 -14 12 -33 22 -44 21 -18 0 -18 -1 0 -8 18 -7 18 -8 0 -25 -17 -18 -17 -18 14 -11 35 7 42 -4 14 -21 -29 -18 -48 -134 -32 -198 7 -29 18 -60 25 -70 18 -23 94 -34 106 -15 7 11 9 11 9 -3 0 -10 -7 -18 -16 -18 -8 0 -13 -4 -10 -9 8 -13 -68 -20 -76 -7 -5 6 -8 1 -8 -12 0 -13 -4 -21 -9 -18 -5 3 -12 -1 -15 -10 -3 -9 -12 -14 -20 -11 -7 3 -19 0 -25 -6 -8 -8 -11 -8 -11 2 0 8 -10 5 -29 -8 -35 -25 -48 -26 -75 -4 -12 10 -15 11 -8 3 26 -30 10 -30 -25 -1 -21 17 -47 31 -58 31 -14 -1 -11 -5 13 -15 37 -16 34 -35 -5 -35 -42 0 -20 -11 30 -15 44 -4 87 -22 87 -37 0 -5 14 -8 31 -8 66 0 95 -49 43 -72 -21 -10 -31 -9 -55 4 -16 10 -29 13 -29 8 0 -18 40 -30 84 -26 48 5 86 21 86 37 0 6 -8 6 -21 -1 -28 -15 -39 -2 -14 16 20 15 19 16 -15 44 -29 25 -32 31 -20 40 8 5 19 10 24 10 5 0 25 10 44 22 57 35 79 33 107 -11 22 -36 25 -81 5 -81 -4 0 -10 -13 -13 -29 -3 -16 -13 -36 -22 -45 -9 -9 -12 -16 -6 -16 6 0 11 -4 11 -10 0 -5 -3 -9 -7 -9 -51 8 -107 -39 -116 -97 -4 -20 -4 -42 0 -47 7 -11 38 42 35 59 -4 18 30 40 82 54 28 8 45 15 39 17 -15 5 31 112 58 135 11 9 45 22 77 29 l57 13 -40 6 -40 5 30 12 c17 6 23 12 13 12 -26 1 -68 -21 -68 -36 0 -7 -4 -13 -10 -13 -13 0 -70 79 -70 97 0 8 -4 11 -10 8 -15 -9 -12 18 4 41 14 18 15 16 22 -26 l7 -44 14 39 c7 21 20 46 28 55 8 9 15 22 15 29 0 7 6 11 15 8 19 -8 78 62 95 112 7 22 19 42 27 45 9 4 11 14 8 29 -9 35 21 44 52 16 12 -13 23 -18 23 -13 0 5 5 1 10 -8 7 -11 7 -26 0 -43 -15 -40 -13 -247 3 -285 14 -33 11 -84 -4 -74 -5 3 -9 -2 -9 -11 0 -9 -19 -46 -43 -83 -24 -37 -54 -93 -66 -124 -13 -32 -28 -59 -35 -60 -6 0 -16 -2 -22 -2 -6 -1 -19 -9 -28 -19 -10 -9 -26 -17 -37 -17 -16 0 -17 3 -8 19 14 21 5 55 -13 49 -14 -5 -24 -29 -11 -27 20 3 23 -2 13 -21 -13 -25 -4 -60 16 -60 24 0 107 46 130 72 11 12 30 46 41 73 11 28 39 79 62 114 23 36 46 82 53 103 13 44 20 47 41 16 13 -21 13 -26 -6 -59 -20 -35 -20 -36 -1 -74 10 -21 26 -41 34 -43 12 -3 13 -2 1 6 -16 11 -7 67 9 57 6 -3 10 -1 10 5 0 7 -8 9 -20 5 -23 -7 -26 4 -7 26 21 26 91 42 154 36 46 -5 53 -4 33 4 -14 6 -48 11 -77 11 -37 0 -60 5 -78 20 -36 28 -31 36 19 31 26 -3 46 -1 50 6 5 7 -8 11 -41 11 -53 0 -94 17 -101 40 -3 8 -1 12 3 8 8 -8 55 44 55 61 0 6 6 11 13 11 9 0 9 2 -1 9 -10 6 -5 11 17 20 31 14 71 51 54 51 -6 0 -16 -7 -23 -15 -23 -27 -31 -4 -10 29 20 34 30 77 10 46 -7 -11 -10 4 -10 50 0 36 -5 72 -10 80 -7 10 -8 -6 -4 -51 9 -90 -6 -129 -73 -195 -57 -56 -73 -64 -73 -39 0 8 6 15 14 15 13 0 26 25 41 79 5 15 4 21 -4 17 -5 -4 -20 3 -32 15 l-22 22 6 -31 c4 -18 2 -34 -4 -38 -8 -4 -9 10 -4 47 3 30 7 75 7 102 1 26 5 47 10 47 5 0 -2 17 -16 37 -14 20 -23 40 -20 45 4 5 -1 15 -9 21 -8 7 -33 34 -57 60 l-43 48 44 -7 c134 -19 244 -63 219 -88 -7 -7 -17 -3 -30 12 -12 12 -26 22 -32 22 -6 0 4 -13 23 -29 20 -18 36 -26 40 -20 11 18 76 -69 100 -133 12 -33 23 -88 25 -124 1 -35 5 -68 8 -73 11 -17 -12 -92 -35 -117 -12 -13 -19 -24 -15 -24 15 0 56 33 56 46 0 7 8 18 18 24 12 8 13 13 5 16 -7 3 -13 11 -13 17 0 6 11 0 25 -13 14 -13 24 -31 23 -40 -1 -8 1 -21 5 -28 5 -6 7 -42 6 -80 -1 -37 -1 -81 -1 -99 0 -20 -5 -34 -15 -37 -9 -4 -16 -5 -17 -4 -7 19 -24 41 -31 42 -6 0 -11 -10 -12 -24 -1 -14 0 -19 3 -12 10 21 21 13 28 -18 7 -36 19 -38 51 -6 51 51 42 260 -15 331 -21 27 -28 49 -33 102 -9 113 -59 221 -141 305 -43 44 -128 78 -217 85 -47 4 -80 14 -115 34 -101 58 -121 67 -164 73 -32 5 -54 2 -75 -9z m64 -37 c11 -10 13 -10 7 0 -9 15 -7 15 44 -3 24 -8 50 -23 59 -33 9 -9 23 -18 31 -20 20 -4 90 -53 90 -62 0 -4 11 -19 25 -32 l25 -26 -22 -6 c-34 -9 -68 -7 -68 3 0 5 -9 13 -21 16 -16 5 -18 10 -8 21 13 16 -2 19 -17 4 -17 -17 -92 5 -134 39 -41 33 -60 41 -40 16 11 -13 5 -15 -43 -15 -67 0 -82 20 -37 47 17 9 30 21 30 25 0 4 8 8 18 8 14 0 14 2 3 9 -11 7 -10 10 5 14 32 8 40 7 53 -5z m336 -317 c-4 -11 -9 -10 -20 5 -17 23 -19 38 -3 28 7 -4 8 -3 4 4 -4 7 -4 17 0 24 10 15 26 -41 19 -61z m-334 -9 c29 -23 31 -23 69 -8 47 19 50 19 50 7 0 -18 -32 -41 -56 -41 -14 0 -23 -4 -19 -9 3 -6 -6 -7 -22 -4 -16 3 -34 6 -40 6 -7 0 -13 4 -13 8 0 5 15 6 33 3 20 -3 12 3 -23 15 -30 10 -49 19 -42 20 7 1 10 6 6 12 -7 13 -24 -1 -27 -23 -2 -8 -13 -30 -26 -49 -12 -19 -20 -25 -16 -14 4 11 9 37 12 57 4 28 14 43 37 58 29 18 32 18 39 2 5 -9 22 -28 38 -40z m93 37 c5 -4 0 -5 -12 -2 -14 3 -25 -2 -34 -16 -7 -12 -19 -21 -27 -21 -11 0 -11 4 2 18 13 14 14 21 5 30 -10 10 -5 11 22 6 19 -4 39 -10 44 -15z m-134 -69 c0 -16 -12 -40 -20 -40 -4 0 -10 13 -12 29 -3 23 -1 27 14 23 10 -2 18 -8 18 -12z m-15 -51 c15 -3 22 -15 26 -44 l6 -40 2 38 c1 30 5 37 21 37 25 0 25 -11 -1 -61 -15 -31 -25 -40 -42 -37 -17 2 -23 12 -28 43 -3 22 -9 51 -13 65 -4 14 -4 20 1 14 4 -7 17 -13 28 -15z m-30 -75 c0 -25 4 -48 9 -50 25 -8 76 -12 72 -5 -3 4 4 25 15 46 17 35 18 36 13 10 -4 -16 -6 -40 -6 -52 1 -19 -4 -22 -52 -25 -30 -1 -53 -1 -50 1 2 2 -2 9 -9 15 -9 7 -12 28 -9 63 5 65 19 62 17 -3z"/> <path d="M1480 1998 c0 -10 -5 -18 -11 -18 -6 0 -1 -8 12 -19 18 -14 27 -16 41 -8 12 8 14 15 6 24 -5 7 -14 10 -19 8 -4 -3 -12 3 -18 12 -10 17 -10 17 -11 1z"/> <path d="M1557 1948 c-16 -12 -16 -14 1 -24 14 -9 25 -8 52 7 29 15 31 18 13 19 -12 0 -27 2 -35 5 -7 3 -21 0 -31 -7z"/> <path d="M1264 1945 c3 -9 0 -15 -10 -15 -11 0 -12 -5 -6 -17 5 -10 8 -26 7 -36 -2 -9 1 -15 6 -11 5 3 6 10 3 16 -5 7 -2 9 8 5 9 -3 23 0 32 6 15 11 14 15 -9 40 -29 30 -40 35 -31 12z"/> <path d="M1491 1891 c-11 -7 -10 -11 6 -20 15 -7 19 -18 17 -38 -3 -25 -2 -25 8 5 9 27 8 36 -3 47 -9 9 -19 11 -28 6z"/> <path d="M1295 1844 c-21 -22 -10 -32 12 -12 10 9 29 18 43 21 21 4 21 4 -7 6 -17 0 -39 -6 -48 -15z"/> <path d="M1694 1831 l-41 -6 18 -40 c10 -22 19 -34 19 -26 0 7 10 22 22 32 l21 19 -21 0 c-12 0 -22 -5 -22 -11 0 -5 -4 -7 -10 -4 -21 13 -9 25 24 25 19 0 38 5 41 10 3 6 3 9 -2 8 -4 0 -26 -4 -49 -7z"/> <path d="M1235 1777 c-6 -7 -14 -17 -18 -23 -11 -18 11 -79 38 -104 30 -28 34 -13 5 18 -29 31 -32 83 -7 105 14 11 16 17 6 17 -8 -1 -19 -6 -24 -13z"/> <path d="M1094 1760 c-25 -40 -36 -68 -40 -100 l-4 -35 15 34 c9 19 13 36 10 39 -3 3 4 16 16 28 12 12 19 28 17 35 -3 10 -7 10 -14 -1z"/> <path d="M1647 1673 c-4 -23 -18 -46 -39 -65 l-33 -29 30 15 c39 18 79 96 57 110 -5 3 -12 -11 -15 -31z"/> <path d="M1758 1700 c14 -16 16 -34 4 -26 -5 3 -8 -28 -7 -69 1 -41 -2 -72 -6 -69 -5 3 -6 -2 -3 -11 9 -22 18 -10 21 28 12 124 11 136 -5 148 -14 11 -15 11 -4 -1z"/> <path d="M1620 1495 c-14 -17 -45 -21 -35 -5 3 6 4 10 1 10 -9 0 -43 -55 -50 -80 -6 -24 -6 -24 9 3 18 32 29 35 21 7 -3 -11 -9 -30 -12 -41 -4 -13 -2 -19 4 -15 5 3 13 18 17 33 3 16 23 45 43 66 20 20 31 37 25 37 -6 0 -16 -7 -23 -15z"/> <path d="M2100 1420 c0 -9 4 -20 10 -26 5 -5 14 -27 19 -49 l9 -40 -1 43 c0 27 -7 52 -18 65 -14 17 -18 18 -19 7z"/> <path d="M1766 1373 c-4 -11 -5 -26 -3 -34 2 -8 2 -11 0 -6 -3 4 -10 7 -16 7 -6 0 -3 -8 6 -17 16 -16 19 -16 27 -3 12 19 12 41 1 59 -7 11 -10 10 -15 -6z"/> <path d="M957 1336 c-9 -22 20 -93 41 -102 36 -15 42 -13 31 8 -8 15 -13 17 -19 9 -9 -16 -23 46 -13 63 3 6 2 7 -2 3 -5 -4 -14 2 -20 14 -10 18 -13 19 -18 5z"/> <path d="M1952 1258 c-18 -18 -16 -62 2 -55 9 4 17 -1 20 -11 2 -9 4 -6 3 8 -2 14 -8 24 -15 23 -18 -4 -14 25 6 36 9 6 12 11 7 11 -6 0 -16 -5 -23 -12z"/> <path d="M2056 1254 c-9 -8 -16 -20 -16 -25 0 -5 -5 -8 -12 -6 -6 1 -13 -7 -15 -18 -3 -16 -2 -17 6 -5 9 12 11 12 17 -3 9 -25 22 -21 17 7 -3 16 3 30 18 45 13 11 18 21 12 21 -7 0 -19 -7 -27 -16z"/> <path d="M1923 1180 c4 -14 7 -28 7 -32 0 -5 6 -8 14 -8 19 0 15 23 -9 46 -18 19 -18 19 -12 -6z"/> <path d="M1980 1170 c-17 -11 -7 -24 26 -34 19 -6 21 -3 16 19 -5 26 -17 31 -42 15z"/> <path d="M2044 1154 c3 -9 6 -18 6 -20 0 -2 11 -4 25 -4 23 0 24 2 15 20 -13 24 -55 28 -46 4z"/> <path d="M1588 1130 c12 -12 22 -25 22 -30 0 -6 4 -10 10 -10 13 0 1 32 -18 48 -26 20 -37 14 -14 -8z"/> <path d="M1414 1108 c-22 -17 -29 -30 -28 -50 2 -18 -2 -28 -10 -28 -8 0 -16 -9 -19 -20 -8 -33 29 -25 39 8 4 15 6 31 5 36 -5 22 14 49 42 61 18 8 25 14 16 15 -8 0 -29 -10 -45 -22z"/> <path d="M1490 1113 c-25 -9 -40 -35 -40 -70 0 -24 -4 -33 -17 -33 -13 0 -14 3 -5 12 16 16 16 61 0 56 -6 -2 -14 -10 -16 -18 -3 -7 0 -10 7 -6 6 4 11 1 11 -8 0 -8 -4 -18 -10 -21 -23 -14 -4 -55 25 -55 1 0 6 16 9 35 7 34 22 53 34 41 3 -4 1 -16 -6 -26 -21 -34 -15 -60 12 -60 24 0 25 3 22 49 -4 53 9 74 49 84 18 4 17 5 -3 6 -13 1 -33 -10 -47 -25 -14 -15 -25 -21 -25 -14 0 10 -3 10 -15 0 -12 -10 -15 -10 -15 2 0 19 20 38 42 38 10 0 18 5 18 10 0 11 -7 11 -30 3z"/> <path d="M1280 822 c-109 -1 -199 -7 -204 -12 -7 -7 157 -10 469 -10 269 0 473 4 465 9 -17 10 -438 17 -730 13z"/> <path d="M1145 780 l-80 -5 115 -7 c144 -10 636 -9 750 1 l85 8 -75 2 c-150 5 -717 6 -795 1z"/> <path d="M1402 612 c48 -2 58 -6 64 -25 7 -22 8 -22 15 3 6 20 7 16 8 -20 l1 -45 -21 25 c-13 16 -19 19 -15 8 3 -10 1 -20 -4 -23 -6 -4 -10 7 -10 24 0 17 -5 31 -11 31 -7 0 -9 -11 -6 -29 5 -23 2 -31 -11 -34 -23 -6 106 -6 141 0 28 5 39 37 15 46 -7 3 -1 6 13 6 23 1 26 -2 21 -24 -2 -15 0 -25 7 -25 6 0 11 15 11 33 0 32 -2 33 -30 29 -18 -3 -30 0 -30 7 0 7 29 11 85 11 69 0 87 -3 92 -16 3 -9 0 -20 -7 -24 -9 -5 -9 -9 -1 -14 16 -10 26 23 14 43 -9 14 -37 16 -204 16 -107 1 -168 -1 -137 -3z m148 -12 c0 -5 -8 -10 -17 -10 -14 0 -13 -3 5 -16 18 -13 21 -19 11 -30 -13 -16 -39 -19 -39 -4 0 6 8 10 18 11 14 0 14 2 -5 15 -12 9 -19 22 -16 30 6 16 43 19 43 4z"/> <path d="M1331 565 c1 -23 3 -25 6 -7 3 14 12 22 24 22 21 0 26 -16 7 -23 -7 -2 -10 -8 -6 -12 12 -13 38 3 38 24 0 14 -9 20 -35 23 -33 4 -35 3 -34 -27z"/> <path d="M1655 581 c19 -8 19 -8 0 -19 -19 -11 -19 -11 3 -12 12 0 22 5 22 10 0 6 10 15 23 20 18 7 14 9 -23 9 -31 0 -39 -3 -25 -8z"/> </g> </svg> 